<svg xmlns="http://www.w3.org/2000/svg" viewBox="0 0 800 600" role="img" aria-label="Analytics dashboard illustration">
  <defs><linearGradient id="g4" x1="0" y1="0" x2="1" y2="1"><stop stop-color="#0a6e96"/><stop offset="1" stop-color="#101826"/></linearGradient><filter id="sd" x="-20%" y="-20%" width="140%" height="140%"><feDropShadow dx="0" dy="18" stdDeviation="24" flood-color="#101826" flood-opacity=".16"/></filter></defs>
  <rect width="800" height="600" rx="48" fill="#f6f7f9"/>
  <rect x="100" y="86" width="600" height="430" rx="38" fill="#fff" filter="url(#sd)"/>
  <rect x="100" y="86" width="150" height="430" rx="38" fill="#101826"/>
  <rect x="138" y="140" width="72" height="18" rx="9" fill="#fff" opacity=".9"/><rect x="138" y="200" width="76" height="14" rx="7" fill="#fff" opacity=".45"/><rect x="138" y="242" width="54" height="14" rx="7" fill="#fff" opacity=".3"/>
  <rect x="300" y="140" width="150" height="92" rx="24" fill="#0a6e96" opacity=".12"/><rect x="485" y="140" width="150" height="92" rx="24" fill="#6fd0ec" opacity=".2"/>
  <rect x="300" y="280" width="335" height="166" rx="28" fill="#e8f3f8"/>
  <path d="M330 405l65-70 60 44 72-92 68 54" fill="none" stroke="url(#g4)" stroke-width="18" stroke-linecap="round" stroke-linejoin="round"/>
  <circle cx="395" cy="335" r="13" fill="#0a6e96"/><circle cx="527" cy="287" r="13" fill="#6fd0ec"/><circle cx="595" cy="341" r="13" fill="#101826"/>
</svg>
