<svg xmlns="http://www.w3.org/2000/svg" viewBox="0 0 800 600" role="img" aria-label="E-commerce website illustration">
  <defs><linearGradient id="g3" x1="0" y1="0" x2="1" y2="1"><stop stop-color="#6fd0ec"/><stop offset="1" stop-color="#0a6e96"/></linearGradient><filter id="sh" x="-20%" y="-20%" width="140%" height="140%"><feDropShadow dx="0" dy="18" stdDeviation="24" flood-color="#101826" flood-opacity=".17"/></filter></defs>
  <rect width="800" height="600" rx="48" fill="#f6f7f9"/>
  <rect x="105" y="90" width="590" height="420" rx="36" fill="#fff" filter="url(#sh)"/>
  <rect x="105" y="90" width="590" height="78" rx="36" fill="#101826"/>
  <rect x="150" y="123" width="110" height="16" rx="8" fill="#fff" opacity=".9"/>
  <rect x="550" y="116" width="90" height="30" rx="15" fill="#6fd0ec"/>
  <rect x="150" y="215" width="220" height="220" rx="28" fill="url(#g3)" opacity=".9"/>
  <path d="M218 283h88l-10 84h-68z" fill="none" stroke="#fff" stroke-width="16" stroke-linejoin="round"/><path d="M238 283c0-38 48-38 48 0" fill="none" stroke="#fff" stroke-width="16" stroke-linecap="round"/>
  <rect x="410" y="220" width="180" height="26" rx="13" fill="#101826"/>
  <rect x="410" y="270" width="250" height="20" rx="10" fill="#5b6675" opacity=".2"/>
  <rect x="410" y="308" width="210" height="20" rx="10" fill="#5b6675" opacity=".16"/>
  <rect x="410" y="365" width="140" height="56" rx="18" fill="#0a6e96"/>
</svg>
