<svg xmlns="http://www.w3.org/2000/svg" viewBox="0 0 800 600" role="img" aria-label="Memory game illustration">
  <defs><linearGradient id="g2" x1="0" y1="0" x2="1" y2="1"><stop stop-color="#101826"/><stop offset="1" stop-color="#0a6e96"/></linearGradient><filter id="s" x="-20%" y="-20%" width="140%" height="140%"><feDropShadow dx="0" dy="18" stdDeviation="22" flood-color="#101826" flood-opacity=".16"/></filter></defs>
  <rect width="800" height="600" rx="48" fill="#f6f7f9"/>
  <rect x="120" y="90" width="560" height="420" rx="38" fill="#fff" filter="url(#s)"/>
  <text x="170" y="165" fill="#101826" font-family="Arial" font-size="38" font-weight="700">Memory Match</text>
  <g transform="translate(170 210)">
    <rect width="104" height="104" rx="22" fill="url(#g2)"/><rect x="132" width="104" height="104" rx="22" fill="#6fd0ec"/><rect x="264" width="104" height="104" rx="22" fill="#0a6e96"/><rect x="396" width="104" height="104" rx="22" fill="#101826"/>
    <rect y="132" width="104" height="104" rx="22" fill="#6fd0ec"/><rect x="132" y="132" width="104" height="104" rx="22" fill="#101826"/><rect x="264" y="132" width="104" height="104" rx="22" fill="url(#g2)"/><rect x="396" y="132" width="104" height="104" rx="22" fill="#0a6e96"/>
    <g fill="none" stroke="#fff" stroke-width="12" stroke-linecap="round" stroke-linejoin="round" opacity=".95"><path d="M42 48l16 16 34-38"/><circle cx="184" cy="52" r="26"/><path d="M306 32l36 40M342 32l-36 40"/><path d="M430 32h36v36h-36z"/></g>
  </g>
</svg>
