<svg xmlns="http://www.w3.org/2000/svg" viewBox="0 0 800 600" role="img" aria-label="Service booking website illustration">
  <defs>
    <linearGradient id="g1" x1="0" y1="0" x2="1" y2="1"><stop stop-color="#0a6e96"/><stop offset="1" stop-color="#6fd0ec"/></linearGradient>
    <filter id="shadow" x="-20%" y="-20%" width="140%" height="140%"><feDropShadow dx="0" dy="18" stdDeviation="24" flood-color="#101826" flood-opacity="0.18"/></filter>
  </defs>
  <rect width="800" height="600" rx="48" fill="#f6f7f9"/>
  <circle cx="680" cy="90" r="150" fill="#6fd0ec" opacity=".18"/>
  <circle cx="130" cy="520" r="170" fill="#0a6e96" opacity=".12"/>
  <rect x="120" y="110" width="560" height="380" rx="32" fill="#fff" filter="url(#shadow)"/>
  <rect x="120" y="110" width="560" height="86" rx="32" fill="#101826"/>
  <circle cx="164" cy="153" r="13" fill="#6fd0ec"/><circle cx="204" cy="153" r="13" fill="#0a6e96"/><circle cx="244" cy="153" r="13" fill="#f6f7f9"/>
  <rect x="170" y="238" width="230" height="32" rx="16" fill="#101826" opacity=".92"/>
  <rect x="170" y="294" width="410" height="22" rx="11" fill="#5b6675" opacity=".22"/>
  <rect x="170" y="332" width="360" height="22" rx="11" fill="#5b6675" opacity=".16"/>
  <rect x="170" y="386" width="166" height="58" rx="18" fill="url(#g1)"/>
  <rect x="470" y="230" width="110" height="110" rx="26" fill="#0a6e96" opacity=".12"/>
  <path d="M525 260v50M500 285h50" stroke="#0a6e96" stroke-width="22" stroke-linecap="round"/>
</svg>
